<svg width="40" height="40" viewBox="0 0 40 40" fill="none" xmlns="http://www.w3.org/2000/svg">
<path d="M37 8V10.6254H33.0898V31H30.2224C29.5023 29.5455 28.6086 28.2761 27.5411 27.1913C26.4734 26.082 25.3315 25.133 24.115 24.3441L25.046 21.9035C25.9893 22.4458 26.97 23.1854 27.988 24.1222C29.0057 25.059 29.7878 26.008 30.3341 26.9695C30.3091 26.5997 30.2844 26.2545 30.2596 25.9341C30.2596 25.6137 30.2471 25.2809 30.2224 24.9357C30.2224 24.5905 30.2224 24.2207 30.2224 23.8264V10.6254H3V8H37ZM17.3746 27.635C15.6864 27.635 14.0726 27.2407 12.5334 26.4518C10.9941 25.6629 9.54179 24.3317 8.17633 22.4582C6.8357 20.56 5.59437 17.9593 4.45235 14.6559L7.17086 13.7685C8.06461 16.3323 8.99561 18.44 9.96384 20.0916C10.9569 21.7186 12.0617 22.9143 13.2782 23.6785C14.4947 24.4426 15.885 24.8248 17.4491 24.8248C18.8145 24.8248 19.9069 24.6153 20.7262 24.1961C21.5702 23.7524 22.1786 23.1608 22.551 22.4212C22.9234 21.6571 23.1096 20.8188 23.1096 19.9068C23.1096 18.477 22.7122 17.3183 21.9179 16.4309C21.1481 15.5434 20.1799 15.0997 19.0132 15.0997C18.1939 15.0997 17.5731 15.2846 17.1512 15.6543C16.7291 15.9995 16.5181 16.5294 16.5181 17.2444C16.5181 17.4169 16.5429 17.6511 16.5926 17.9469C16.6421 18.2428 16.7166 18.514 16.816 18.7605L13.9857 19.3151C13.8119 18.7974 13.6754 18.3291 13.5761 17.91C13.5016 17.4662 13.4644 17.0471 13.4644 16.6527C13.4644 15.7406 13.7126 14.9764 14.2092 14.3601C14.7306 13.7438 15.3884 13.2878 16.1829 12.992C17.0022 12.6715 17.8587 12.5113 18.7525 12.5113C20.2171 12.5113 21.4833 12.8441 22.551 13.5096C23.6184 14.1506 24.4502 15.0381 25.046 16.172C25.6419 17.3059 25.9398 18.6249 25.9398 20.1286C25.9398 21.4598 25.6294 22.7047 25.0088 23.8633C24.388 24.9973 23.4447 25.9095 22.1786 26.5997C20.9124 27.2899 19.3111 27.635 17.3746 27.635ZM16.1829 13.8055C16.0587 13.0166 15.6864 12.3264 15.0658 11.7347C14.4699 11.1184 13.5885 10.687 12.4217 10.4405L13.3154 8.77653L14.9913 9.22026C16.4064 9.76259 17.4241 10.3789 18.0449 11.0691C18.6655 11.7594 19.0255 12.6345 19.1249 13.6945L16.1829 13.8055Z" fill="#FF5E2B"/>
</svg>
