<svg width="40" height="40" viewBox="0 0 40 40" fill="none" xmlns="http://www.w3.org/2000/svg">
<g clip-path="url(#clip0_293_1046)">
<path fill-rule="evenodd" clip-rule="evenodd" d="M20 0C8.96875 0 0 8.96875 0 20C0 31.0312 8.96875 40 20 40C31.0312 40 40 31.0312 40 20C40 8.96875 31.0312 0 20 0Z" fill="#22C55E"/>
<path fill-rule="evenodd" clip-rule="evenodd" d="M29.6718 13.2578C30.1562 13.7422 30.1562 14.5391 29.6718 15.0235L17.9531 26.7422C17.7109 26.9844 17.3906 27.1094 17.0703 27.1094C16.75 27.1094 16.4297 26.9844 16.1875 26.7422L10.3281 20.8828C9.84371 20.3985 9.84371 19.6016 10.3281 19.1172C10.8125 18.6328 11.6093 18.6328 12.0937 19.1172L17.0703 24.0938L27.9062 13.2578C28.3906 12.7656 29.1875 12.7656 29.6718 13.2578Z" fill="white"/>
<path d="M27.5527 12.9043C28.2323 12.2169 29.3458 12.2169 30.0254 12.9043L30.1445 13.0361C30.7024 13.721 30.6626 14.7397 30.0254 15.377L18.3066 27.0957C17.9684 27.4339 17.52 27.6094 17.0703 27.6094C16.6205 27.6094 16.1721 27.4339 15.8339 27.0957L9.97457 21.2363C9.29493 20.5567 9.29493 19.4433 9.97457 18.7637C10.6542 18.0841 11.7676 18.0841 12.4472 18.7637L17.0703 23.3867L27.5527 12.9043ZM29.6718 13.2578C29.1875 12.7656 28.3906 12.7656 27.9062 13.2578L17.0703 24.0938L12.0937 19.1172C11.6093 18.6328 10.8125 18.6328 10.3281 19.1172C9.84371 19.6016 9.84371 20.3985 10.3281 20.8828L16.1875 26.7422C16.4297 26.9844 16.75 27.1094 17.0703 27.1094C17.3906 27.1094 17.7109 26.9844 17.9531 26.7422L29.6718 15.0235C30.1562 14.5391 30.1562 13.7422 29.6718 13.2578Z" fill="white"/>
</g>
<defs>
<clipPath id="clip0_293_1046">
<rect width="40" height="40" fill="white"/>
</clipPath>
</defs>
</svg>
