<svg width="40" height="40" viewBox="0 0 40 40" fill="none" xmlns="http://www.w3.org/2000/svg">
<path fill-rule="evenodd" clip-rule="evenodd" d="M20 3C10.6234 3 3 10.6234 3 20C3 29.3766 10.6234 37 20 37C29.3766 37 37 29.3766 37 20C37 10.6234 29.3766 3 20 3Z" fill="#FF5E2B"/>
<path fill-rule="evenodd" clip-rule="evenodd" d="M28.2214 14.2691C28.6331 14.6808 28.6331 15.3582 28.2214 15.7699L18.2604 25.7308C18.0546 25.9367 17.7823 26.043 17.51 26.043C17.2378 26.043 16.9655 25.9367 16.7596 25.7308L11.7792 20.7504C11.3674 20.3387 11.3674 19.6613 11.7792 19.2496C12.1909 18.8379 12.8682 18.8379 13.2799 19.2496L17.51 23.4797L26.7206 14.2691C27.1323 13.8508 27.8096 13.8508 28.2214 14.2691Z" fill="white"/>
<path d="M26.4201 13.9686C26.9977 13.3843 27.9442 13.3843 28.5218 13.9686L28.6231 14.0807C29.0973 14.6628 29.0635 15.5287 28.5218 16.0704L18.5609 26.0313C18.2735 26.3188 17.8923 26.468 17.51 26.468C17.1277 26.468 16.7466 26.3188 16.4591 26.0313L11.4787 21.0509C10.901 20.4732 10.901 19.5268 11.4787 18.9491C12.0564 18.3714 13.0027 18.3714 13.5804 18.9491L17.51 22.8787L26.4201 13.9686ZM28.2214 14.2691C27.8096 13.8508 27.1323 13.8508 26.7206 14.2691L17.51 23.4797L13.2799 19.2496C12.8682 18.8379 12.1909 18.8379 11.7792 19.2496C11.3674 19.6613 11.3674 20.3387 11.7792 20.7504L16.7596 25.7308C16.9655 25.9367 17.2378 26.043 17.51 26.043C17.7823 26.043 18.0546 25.9367 18.2604 25.7308L28.2214 15.7699C28.6331 15.3582 28.6331 14.6808 28.2214 14.2691Z" fill="white"/>
</svg>
