<svg width="40" height="40" viewBox="0 0 40 40" fill="none" xmlns="http://www.w3.org/2000/svg">
<path d="M16.3838 21.9055C17.4458 21.9055 18.3129 21.0694 18.3129 20.0454C18.3129 19.0215 17.452 18.1793 16.3838 18.1793H6.85807V13.7201H16.3901C17.452 13.7201 18.3192 12.884 18.3192 11.86C18.3192 10.8361 17.452 10 16.3901 10H4.92903C3.86712 10 3 10.8361 3 11.86V27.9764C3 29.0003 3.86712 29.8364 4.92903 29.8364H16.3901C17.452 29.8364 18.3192 29.0003 18.3192 27.9764C18.3192 26.9524 17.452 26.1163 16.3901 26.1163H6.85807V21.8994L16.3838 21.9055ZM23.7355 30C22.6736 30 21.8065 29.1639 21.8065 28.14V12.2599C21.8065 11.448 22.3532 10.7331 23.1512 10.4847C23.9492 10.2424 24.8289 10.5211 25.3127 11.1815L33.1419 21.851V11.86C33.1419 10.8361 34.0091 10 35.071 10C36.1329 10 37 10.8361 37 11.86V27.6977C37 28.5095 36.4533 29.2245 35.6553 29.4729C34.8573 29.7152 33.9776 29.4365 33.4938 28.7761L25.6646 18.1127V28.14C25.6646 29.1639 24.8037 30 23.7355 30Z" fill="#FF5E2B"/>
</svg>
