<svg width="40" height="40" viewBox="0 0 40 40" fill="none" xmlns="http://www.w3.org/2000/svg">
<path d="M18.1461 6.4022C16.5258 8.02313 15.5886 10.1833 15.0512 12.3499C14.5122 14.5263 14.3536 16.7982 14.3552 18.7462C14.3535 18.8841 14.2981 19.016 14.2008 19.1136C14.1034 19.2113 13.9718 19.2672 13.834 19.2693C10.9673 19.2806 7.3334 19.6255 4.39389 21.0294C3.28996 21.5573 2.82864 22.6455 3.05687 23.677C3.27215 24.6421 4.05235 25.434 5.10773 25.6914C6.39457 26.0056 7.88698 26.412 9.18516 26.8735C9.83424 27.1035 10.4153 27.3399 10.888 27.5763C11.3768 27.8225 11.6763 28.0297 11.8236 28.1787C11.9709 28.3244 12.1797 28.624 12.4241 29.1131C12.6604 29.5859 12.8968 30.1656 13.1266 30.8149C13.5863 32.112 13.991 33.605 14.305 34.8908C14.5624 35.9465 15.3539 36.7287 16.3203 36.9424C17.3513 37.1724 18.4391 36.7109 18.9668 35.6065C20.3702 32.6707 20.7149 29.0418 20.7311 26.1772C20.7311 25.8955 20.9691 25.6574 21.254 25.6574C23.1996 25.6574 25.4722 25.4987 27.6477 24.9595C29.8167 24.4203 31.976 23.4827 33.5979 21.8602C35.4108 20.0465 36.2979 17.6354 36.7009 15.2922C37.1056 12.9426 37.0392 10.5541 36.8547 8.666C36.7245 7.24546 36.1011 5.91539 35.0928 4.9067C34.0846 3.89801 32.755 3.2744 31.335 3.14415C29.4477 2.96116 27.0617 2.89477 24.7114 3.29798C22.3692 3.70281 19.959 4.59019 18.1461 6.4022ZM27.2803 7.85472C27.7096 7.85472 28.1213 8.02533 28.4248 8.32901C28.7284 8.63269 28.8989 9.04457 28.8989 9.47404C28.8989 9.9035 28.7284 10.3154 28.4248 10.6191C28.1213 10.9227 27.7096 11.0933 27.2803 11.0933C26.851 11.0933 26.4393 10.9227 26.1357 10.6191C25.8321 10.3154 25.6616 9.9035 25.6616 9.47404C25.6616 9.04457 25.8321 8.63269 26.1357 8.32901C26.4393 8.02533 26.851 7.85472 27.2803 7.85472Z" fill="#1CB0F7"/>
<path d="M24.7119 3.2981C26.4573 2.99871 28.2222 2.9585 29.7881 3.03247C28.9787 3.07361 28.1507 3.15682 27.3271 3.2981C24.9849 3.70292 22.5746 4.59058 20.7617 6.40259C19.1415 8.02344 18.2044 10.1833 17.667 12.3499C17.128 14.5262 16.9691 16.7983 16.9707 18.7463C16.969 18.8841 16.9136 19.0159 16.8164 19.1135C16.7191 19.2112 16.5871 19.2677 16.4492 19.2698C13.5826 19.2811 9.94824 19.6256 7.00879 21.0295C5.90521 21.5575 5.4438 22.6457 5.67188 23.677C5.88713 24.642 6.6675 25.4341 7.72266 25.6917C9.0095 26.0058 10.5026 26.4118 11.8008 26.8733C12.4497 27.1032 13.0304 27.3401 13.5029 27.5764C13.9918 27.8226 14.2922 28.03 14.4395 28.179C14.5867 28.3248 14.7948 28.6248 15.0391 29.1135C15.2753 29.5863 15.5124 30.1655 15.7422 30.8147C16.2019 32.1117 16.6059 33.6052 16.9199 34.8909C17.1001 35.6301 17.5434 36.234 18.124 36.6038C17.5938 36.9644 16.9473 37.0824 16.3203 36.9426C15.354 36.7289 14.5621 35.9467 14.3047 34.8909C13.9907 33.6051 13.5866 32.1117 13.127 30.8147C12.8972 30.1655 12.6601 29.5863 12.4238 29.1135C12.1794 28.6245 11.9705 28.3247 11.8232 28.179C11.6759 28.03 11.3764 27.8225 10.8877 27.5764C10.4151 27.3401 9.83443 27.1032 9.18555 26.8733C7.88737 26.4118 6.39426 26.0058 5.10742 25.6917C4.05219 25.4341 3.27191 24.642 3.05664 23.677C2.82851 22.6456 3.28988 21.5575 4.39355 21.0295C7.33306 19.6256 10.9673 19.2811 13.834 19.2698C13.9718 19.2677 14.1038 19.2112 14.2012 19.1135C14.2983 19.0159 14.3538 18.8841 14.3555 18.7463C14.3539 16.7983 14.5118 14.5262 15.0508 12.3499C15.5882 10.1832 16.5262 8.02351 18.1465 6.40259C19.9594 4.5906 22.3697 3.70292 24.7119 3.2981Z" fill="#1B98D2"/>
</svg>
