<svg width="40" height="40" viewBox="0 0 40 40" fill="none" xmlns="http://www.w3.org/2000/svg">
<path d="M33.1059 29.3129L35.4019 27.8434L37 31.7742C36.6051 32.0038 36.201 32.1967 35.7877 32.3712C35.3468 32.5549 34.8968 32.7202 34.4284 32.858C33.96 32.9957 33.4916 33.1059 33.014 33.1794C32.5456 33.2529 32.0681 33.2988 31.5997 33.2988C30.6261 33.2988 29.8547 32.9682 29.2853 32.3069C28.7066 31.6456 28.4219 30.6721 28.4219 29.3771V24.2983C28.0454 24.3809 27.6596 24.4452 27.2739 24.4728C26.8882 24.5095 26.5116 24.5279 26.1442 24.5279C25.3911 24.5371 24.6472 24.3901 23.9584 24.1054C23.2788 23.8207 22.6451 23.4166 22.1124 22.9114C21.8277 23.8115 21.3868 24.6473 20.8082 25.3912C20.2847 26.0525 19.651 26.6127 18.9346 27.0535C18.2183 27.4852 17.4376 27.7975 16.6202 27.9811C15.7569 28.174 14.8844 28.275 14.0027 28.2659C12.3036 28.275 10.6505 27.7332 9.29119 26.7229C7.88601 25.6943 6.64614 24.087 5.57158 21.9104C5.13074 21.8828 4.68071 21.8553 4.23987 21.8185C3.82658 21.7818 3.41329 21.7267 3 21.6348L3.33982 17.7224C3.67963 17.7867 4.02863 17.8234 4.37763 17.8326C4.76337 17.8418 5.15829 17.8509 5.58077 17.8509C6.13182 17.8601 6.67369 17.7683 7.19719 17.5938C7.6564 17.4377 8.08806 17.1897 8.45543 16.8774C8.79524 16.5743 9.07077 16.207 9.26364 15.7845C9.45651 15.3436 9.55754 14.8753 9.54835 14.3977C9.55754 13.8834 9.46569 13.369 9.27283 12.8915C9.09833 12.4598 8.84117 12.0649 8.51053 11.7434C8.17072 11.422 7.7758 11.174 7.34414 11.0179C6.86656 10.8434 6.36143 10.7515 5.85629 10.7607C5.094 10.7607 4.48784 10.8342 4.06537 10.972L3.42247 7.00437C3.79903 6.90335 4.18476 6.82987 4.57969 6.78395C5.02053 6.72885 5.46137 6.70129 5.90221 6.70129C7.40843 6.70129 8.71259 6.9309 9.80551 7.38093C10.8984 7.83095 11.8077 8.42793 12.524 9.16267C13.2312 9.87904 13.7731 10.7332 14.1221 11.6791C14.4619 12.5976 14.6364 13.5619 14.6456 14.5446C14.6456 15.3069 14.5354 16.06 14.3058 16.7856C13.8649 18.1816 12.9833 19.3939 11.7893 20.248C11.1556 20.7072 10.4576 21.0654 9.72285 21.3226C10.2831 22.2686 10.8892 22.9849 11.5321 23.4717C12.1842 23.9676 12.9833 24.2248 13.7915 24.2064C14.416 24.2156 15.0313 24.0778 15.5824 23.7931C16.1059 23.5176 16.5559 23.0676 16.9325 22.4522C17.309 21.8369 17.5845 21.0287 17.7774 20.0276C17.9703 19.0265 18.0713 17.805 18.0713 16.3355V12.5333H22.7553V16.409C22.7553 17.0244 22.8563 17.6305 23.0492 18.2091C23.2053 18.6775 23.4625 19.1 23.7839 19.4765C24.0778 19.8072 24.4452 20.0552 24.8493 20.2205C25.2717 20.3858 25.7218 20.4684 26.181 20.4593C26.5667 20.4593 26.9616 20.395 27.329 20.2756C27.7239 20.147 28.1005 19.9633 28.4403 19.7337V7.13295H33.1243L33.1059 29.3129Z" fill="#FF5E2B"/>
</svg>
