<svg width="40" height="40" viewBox="0 0 40 40" fill="none" xmlns="http://www.w3.org/2000/svg">
<path d="M2.6665 15.224C2.6665 23.6532 9.6345 28.1443 14.734 32.1656C16.5332 33.5835 18.2665 34.9199 19.9998 34.9199C21.7332 34.9199 23.4665 33.5852 25.2657 32.1639C30.3669 28.146 37.3332 23.6532 37.3332 15.2257C37.3332 6.79826 27.7998 0.81653 19.9998 8.9216C12.1998 0.81653 2.6665 6.7948 2.6665 15.224Z" fill="#E64759"/>
<path d="M9.79004 5.37549C7.497 8.15534 6 11.8838 6 15.2241C6.00006 23.6532 12.9679 28.1442 18.0674 32.1655C19.2904 33.1293 20.4832 34.055 21.666 34.5493C21.1091 34.7819 20.5548 34.9194 20 34.9194C18.2667 34.9194 16.5335 33.5833 14.7344 32.1655C9.63493 28.1442 2.66607 23.6533 2.66602 15.2241C2.66602 10.4516 5.72277 6.4653 9.79004 5.37549Z" fill="#E43044"/>
</svg>
