<svg width="40" height="40" viewBox="0 0 40 40" fill="none" xmlns="http://www.w3.org/2000/svg">
<path d="M33.0799 5.32999L31.8859 6.52398C28.6414 3.63349 24.4609 2 19.9999 2C10.0745 2 2 10.0745 2 19.9999C2 21.7594 2.2595 23.5084 2.7695 25.1989C2.915 25.6864 3.362 25.9999 3.84499 25.9999C3.95149 25.9999 4.06249 25.9849 4.17049 25.9519C4.76449 25.7719 5.10199 25.1449 4.92199 24.5494C4.47649 23.0689 4.24999 21.5389 4.24999 19.9999C4.24999 11.315 11.315 4.24999 19.9999 4.24999C23.8564 4.24999 27.4729 5.64499 30.2944 8.11398L29.3299 9.07998C28.6219 9.78497 29.1214 11 30.1249 11H33.8749C34.4959 11 34.9999 10.496 34.9999 9.87497V6.12499C34.9999 5.13049 33.7924 4.61899 33.0799 5.32999Z" fill="#FF5E2B"/>
<path d="M37.2304 14.8009C37.0504 14.2069 36.4279 13.8664 35.8279 14.0479C35.2339 14.2279 34.8964 14.8549 35.0764 15.4504C35.5234 16.9309 35.7499 18.4609 35.7499 19.9998C35.7499 28.6848 28.6849 35.7498 19.9999 35.7498C16.1435 35.7498 12.527 34.3548 9.70548 31.8858L10.67 30.9198C11.378 30.2148 10.8785 28.9998 9.87498 28.9998H6.125C5.504 28.9998 5 29.5038 5 30.1248V33.8748C5 34.8783 6.2165 35.3733 6.91999 34.6698L8.11399 33.4758C11.3585 36.3663 15.539 37.9998 19.9999 37.9998C29.9254 37.9998 37.9999 29.9253 37.9999 19.9998C37.9999 18.2404 37.7404 16.4914 37.2304 14.8009Z" fill="#FF5E2B"/>
<path d="M9.80469 17.1415C9.80469 22.1864 13.9032 24.8744 16.9026 27.2812C17.9609 28.1298 18.9804 28.9296 20 28.9296C21.0195 28.9296 22.039 28.1308 23.0973 27.2801C26.0978 24.8754 30.1952 22.1864 30.1952 17.1425C30.1952 12.0986 24.5878 8.51851 20 13.3695C15.4121 8.51851 9.80469 12.0965 9.80469 17.1415Z" fill="#E64759"/>
</svg>
