<svg width="40" height="40" viewBox="0 0 40 40" fill="none" xmlns="http://www.w3.org/2000/svg">
<path d="M14.9197 30.5357C13.0232 30.5357 11.374 30.0593 9.96308 29.1156C8.55214 28.1719 7.29695 26.9076 6.18836 25.3226C5.07976 23.7375 4.01698 21.9876 3 20.0636L4.65831 19.1016C5.40959 20.4667 6.18836 21.786 6.99461 23.0504C7.7917 24.3147 8.71706 25.35 9.76152 26.1471C10.806 26.9442 12.0887 27.3473 13.6004 27.3473C14.5624 27.3473 15.4694 27.1366 16.3306 26.7152C17.1919 26.2937 17.8973 25.7074 18.447 24.9469C18.9968 24.1956 19.2808 23.3069 19.2808 22.2899C19.2808 21.218 18.9235 20.4026 18.2088 19.8437C17.4942 19.294 16.6605 19.01 15.6985 19.01C14.8831 19.01 14.0401 19.1749 13.1698 19.5139C12.2994 19.8529 11.5298 20.1735 10.861 20.4942L8.98275 17.3058C9.77068 16.8661 10.6319 16.4721 11.5756 16.124C12.5193 15.7758 13.4904 15.6017 14.4799 15.6017H14.8739C15.6618 15.107 16.2573 14.5206 16.6605 13.8335C17.0636 13.1463 17.2743 12.4592 17.2743 11.7629C17.2743 11.0024 17.0361 10.3794 16.578 9.88467C16.1108 9.38992 15.3686 9.14255 14.3517 9.14255C13.5362 9.14255 12.4918 9.33495 11.2091 9.72891C9.92643 10.1229 8.68957 10.7001 7.49852 11.4514L5.57451 8.18054C6.85718 7.4201 8.13985 6.87039 9.44085 6.52223C10.7418 6.17408 11.8504 6 12.7758 6C14.1134 6 15.2495 6.28402 16.1749 6.85206C17.1094 7.4201 17.8607 8.13474 18.447 9.01428C19.0334 9.88467 19.4549 10.7825 19.7389 11.6987C20.0137 12.6149 20.1512 13.4212 20.1512 14.1175C20.1512 14.5847 20.0779 15.0795 19.9313 15.6017C19.7847 16.124 19.4365 16.692 18.8868 17.3058C19.0609 17.4524 19.2533 17.654 19.4549 17.9197C19.9496 18.4694 20.5268 18.9642 21.1773 19.4039C21.8278 19.8437 22.799 20.0544 24.0816 20.0544C25.685 20.0544 27.0318 19.578 28.1404 18.616L28.232 9.84802H23.5594L22.0752 7.00781V6.56804H35.5158L37 9.40825V9.84802H31.8968L31.9884 34.0631H31.5486L28.0579 31.7909L28.1037 23.0229C27.8747 23.1145 27.6273 23.1695 27.3616 23.197C27.0959 23.2245 26.8211 23.2428 26.5371 23.2428C25.7216 23.2428 24.9154 23.0962 24.1183 22.803C23.3212 22.5098 22.6249 22.18 22.0477 21.7952L21.8736 21.8777C22.0477 22.2808 22.1668 22.7022 22.2401 23.1237C22.3134 23.5451 22.35 23.9483 22.35 24.3239C22.35 25.515 22.0202 26.5777 21.3697 27.5123C20.7192 28.4468 19.8397 29.1797 18.7311 29.7203C17.6225 30.2608 16.349 30.5449 14.9197 30.5357Z" fill="#FF5E2B"/>
</svg>
