<svg width="40" height="40" viewBox="0 0 40 40" fill="none" xmlns="http://www.w3.org/2000/svg">
<g clip-path="url(#clip0_173_2700)">
<path fill-rule="evenodd" clip-rule="evenodd" d="M4.20016 12.859C3.3335 14.4373 3.3335 16.3457 3.3335 20.159V22.6957C3.3335 29.1957 3.3335 32.4473 5.28683 34.4673C7.24016 36.4873 10.3818 36.4873 16.6668 36.4873H23.3335C29.6185 36.4873 32.7618 36.4873 34.7135 34.4673C36.6652 32.4473 36.6668 29.1973 36.6668 22.6957V20.1607C36.6668 16.3457 36.6668 14.439 35.8002 12.859C34.9368 11.2773 33.3552 10.2973 30.1935 8.33399L26.8602 6.26566C23.5185 4.19066 21.8468 3.15399 20.0002 3.15399C18.1535 3.15399 16.4835 4.19066 13.1402 6.26566L9.80683 8.33399C6.64516 10.2973 5.06516 11.2773 4.20016 12.859ZM18.7502 29.8207C18.7502 30.1522 18.8819 30.4701 19.1163 30.7045C19.3507 30.939 19.6686 31.0707 20.0002 31.0707C20.3317 31.0707 20.6496 30.939 20.884 30.7045C21.1185 30.4701 21.2502 30.1522 21.2502 29.8207V24.8207C21.2502 24.4891 21.1185 24.1712 20.884 23.9368C20.6496 23.7024 20.3317 23.5707 20.0002 23.5707C19.6686 23.5707 19.3507 23.7024 19.1163 23.9368C18.8819 24.1712 18.7502 24.4891 18.7502 24.8207V29.8207Z" fill="#FF5E2B"/>
</g>
<defs>
<clipPath id="clip0_173_2700">
<rect width="40" height="40" fill="white"/>
</clipPath>
</defs>
</svg>
