<svg width="40" height="40" viewBox="0 0 40 40" fill="none" xmlns="http://www.w3.org/2000/svg">
<g clip-path="url(#clip0_173_2698)">
<path d="M20.0005 4.15399C20.7182 4.15405 21.4435 4.3501 22.4321 4.83075C23.4414 5.32148 24.6445 6.06674 26.3325 7.11493L29.6655 9.18329C31.263 10.1753 32.3999 10.8825 33.2505 11.5339C34.0829 12.1713 34.5802 12.7117 34.9224 13.3386L34.9233 13.3395C35.2679 13.9677 35.462 14.6922 35.563 15.7653C35.6659 16.8588 35.6665 18.2348 35.6665 20.1608V22.696C35.6665 25.9739 35.6642 28.3354 35.4302 30.1335C35.1995 31.9058 34.7598 32.98 33.9946 33.7722C33.2341 34.5593 32.2085 35.0086 30.5103 35.2448C28.7798 35.4854 26.5049 35.487 23.3335 35.487H16.6665C13.495 35.487 11.22 35.4855 9.48975 35.2448C7.79207 35.0086 6.76681 34.5596 6.00537 33.7722C5.23954 32.9801 4.79936 31.9054 4.56885 30.1325C4.33504 28.3342 4.3335 25.9731 4.3335 22.696V20.1589C4.3335 18.2337 4.3341 16.8578 4.43701 15.7643C4.53802 14.6913 4.73242 13.9675 5.07666 13.3405L5.07764 13.3386C5.42075 12.7113 5.91849 12.1712 6.75049 11.5339C7.60087 10.8825 8.73712 10.1752 10.3345 9.18329L13.6675 7.11493C15.3565 6.06664 16.5597 5.32153 17.5688 4.83075C18.5574 4.35 19.2827 4.15399 20.0005 4.15399ZM20.0005 22.571C19.4037 22.571 18.8306 22.8072 18.4087 23.2292C17.9867 23.6511 17.7505 24.2242 17.7505 24.821V29.821C17.7506 30.4175 17.9869 30.9899 18.4087 31.4118C18.8306 31.8338 19.4038 32.071 20.0005 32.071C20.5971 32.0709 21.1694 31.8337 21.5913 31.4118C22.0132 30.9899 22.2504 30.4176 22.2505 29.821V24.821C22.2505 24.2242 22.0133 23.6511 21.5913 23.2292C21.1694 22.8074 20.597 22.5711 20.0005 22.571Z" stroke="#FF5E2B" stroke-width="2"/>
</g>
<defs>
<clipPath id="clip0_173_2698">
<rect width="40" height="40" fill="white"/>
</clipPath>
</defs>
</svg>
