<svg width="40" height="40" viewBox="0 0 40 40" fill="none" xmlns="http://www.w3.org/2000/svg">
<path d="M20 3C29.3888 3 37 10.6112 37 20C37 29.3888 29.3888 37 20 37C10.6112 37 3 29.3888 3 20C3 10.6112 10.6112 3 20 3Z" stroke="#FF5E2B" stroke-width="2"/>
<path d="M26.3285 24.0659L22.2626 20L26.3285 15.9341C26.4771 15.7856 26.5949 15.6092 26.6753 15.4151C26.7557 15.2209 26.7971 15.0129 26.7971 14.8028C26.7971 14.5926 26.7557 14.3846 26.6753 14.1905C26.5949 13.9963 26.4771 13.82 26.3285 13.6714C26.1799 13.5228 26.0035 13.405 25.8094 13.3246C25.6153 13.2441 25.4072 13.2028 25.1971 13.2028C24.987 13.2028 24.7789 13.2441 24.5848 13.3246C24.3907 13.405 24.2143 13.5228 24.0657 13.6714L19.9999 17.7373L15.934 13.6714C15.7854 13.5228 15.6091 13.405 15.4149 13.3246C15.2208 13.2441 15.0128 13.2028 14.8026 13.2028C14.5925 13.2028 14.3845 13.2441 14.1903 13.3246C13.9962 13.405 13.8198 13.5228 13.6713 13.6714C13.5227 13.82 13.4048 13.9963 13.3244 14.1905C13.244 14.3846 13.2026 14.5926 13.2026 14.8028C13.2026 15.0129 13.244 15.2209 13.3244 15.4151C13.4048 15.6092 13.5227 15.7856 13.6713 15.9341L17.7371 20L13.6713 24.0659C13.5227 24.2144 13.4048 24.3908 13.3244 24.5849C13.244 24.7791 13.2026 24.9871 13.2026 25.1972C13.2026 25.4073 13.244 25.6154 13.3244 25.8095C13.4048 26.0036 13.5227 26.18 13.6713 26.3286C13.8198 26.4772 13.9962 26.595 14.1903 26.6754C14.3845 26.7559 14.5925 26.7972 14.8026 26.7972C15.0128 26.7972 15.2208 26.7559 15.4149 26.6754C15.6091 26.595 15.7854 26.4772 15.934 26.3286L19.9999 22.2627L24.0657 26.3286C24.2143 26.4772 24.3907 26.595 24.5848 26.6754C24.7789 26.7559 24.987 26.7972 25.1971 26.7972C25.4072 26.7972 25.6153 26.7559 25.8094 26.6754C26.0035 26.595 26.1799 26.4772 26.3285 26.3286C26.4771 26.18 26.5949 26.0036 26.6753 25.8095C26.7557 25.6154 26.7971 25.4073 26.7971 25.1972C26.7971 24.9871 26.7557 24.7791 26.6753 24.5849C26.5949 24.3908 26.4771 24.2144 26.3285 24.0659Z" fill="#FF5E2B"/>
</svg>
