<svg width="54" height="54" viewBox="0 0 54 54" fill="none" xmlns="http://www.w3.org/2000/svg">
<path d="M26.999 3.70001C39.8672 3.70001 50.2987 14.1317 50.2988 26.9998C50.2988 39.868 39.8673 50.2996 26.999 50.2996C14.1309 50.2995 3.69922 39.868 3.69922 26.9998C3.69932 14.1317 14.1309 3.70012 26.999 3.70001Z" stroke="#9C9C9C" stroke-opacity="0.3" stroke-width="2"/>
<path d="M35.5441 32.4889L30.0552 27L35.5441 21.5111C35.7447 21.3105 35.9038 21.0724 36.0123 20.8103C36.1209 20.5483 36.1768 20.2674 36.1768 19.9837C36.1768 19.7001 36.1209 19.4192 36.0123 19.1571C35.9038 18.8951 35.7447 18.657 35.5441 18.4564C35.3435 18.2558 35.1054 18.0967 34.8434 17.9882C34.5813 17.8796 34.3004 17.8237 34.0168 17.8237C33.7331 17.8237 33.4522 17.8796 33.1902 17.9882C32.9281 18.0967 32.69 18.2558 32.4894 18.4564L27.0005 23.9453L21.5116 18.4564C21.311 18.2558 21.0729 18.0967 20.8108 17.9882C20.5488 17.8796 20.2679 17.8237 19.9842 17.8237C19.7006 17.8237 19.4197 17.8796 19.1576 17.9882C18.8956 18.0967 18.6574 18.2558 18.4569 18.4564C18.2563 18.657 18.0972 18.8951 17.9886 19.1571C17.8801 19.4192 17.8242 19.7001 17.8242 19.9837C17.8242 20.2674 17.8801 20.5483 17.9886 20.8103C18.0972 21.0724 18.2563 21.3105 18.4569 21.5111L23.9458 27L18.4569 32.4889C18.2563 32.6895 18.0972 32.9276 17.9886 33.1897C17.8801 33.4517 17.8242 33.7326 17.8242 34.0163C17.8242 34.2999 17.8801 34.5808 17.9886 34.8429C18.0972 35.1049 18.2563 35.343 18.4569 35.5436C18.6574 35.7442 18.8956 35.9033 19.1576 36.0119C19.4197 36.1204 19.7006 36.1763 19.9842 36.1763C20.2679 36.1763 20.5488 36.1204 20.8108 36.0119C21.0729 35.9033 21.311 35.7442 21.5116 35.5436L27.0005 30.0547L32.4894 35.5436C32.69 35.7442 32.9281 35.9033 33.1902 36.0119C33.4522 36.1204 33.7331 36.1763 34.0168 36.1763C34.3004 36.1763 34.5813 36.1204 34.8434 36.0119C35.1054 35.9033 35.3435 35.7442 35.5441 35.5436C35.7447 35.343 35.9038 35.1049 36.0123 34.8429C36.1209 34.5808 36.1768 34.2999 36.1768 34.0163C36.1768 33.7326 36.1209 33.4517 36.0123 33.1897C35.9038 32.9276 35.7447 32.6895 35.5441 32.4889Z" fill="#9C9C9C" fill-opacity="0.3"/>
</svg>
