<svg width="40" height="40" viewBox="0 0 40 40" fill="none" xmlns="http://www.w3.org/2000/svg">
<path d="M21.9244 16.4717C22.3521 17.327 22.5659 17.9686 22.5659 18.6101C22.5659 19.4654 22.3521 20.1069 21.9244 20.5346H30.4779V23.5283H26.415C27.4842 24.1698 28.1257 25.0252 28.7672 25.8805C29.4087 26.7359 29.6225 28.0189 29.6225 29.0881C29.6225 31.6541 28.7672 33.5786 27.0565 34.8616C25.3458 36.3585 22.7798 37 19.7861 37C16.7924 37 14.4402 36.3585 12.7295 34.8616C11.0188 33.3648 10.1634 31.4403 10.1634 29.0881C10.1634 26.7359 11.2326 24.8113 13.1571 23.3145H9.09424V20.3208H18.0754C18.7169 19.6792 19.1446 19.0377 19.1446 18.1824C19.1446 17.5409 18.9307 16.6855 18.503 16.044H9.09424V12.8365H21.7106C23.2074 12.8365 24.2766 12.8365 25.132 12.6226C25.7735 12.4088 26.415 12.195 26.8427 11.7673C27.2703 11.3396 27.4842 10.6981 27.4842 10.0566C27.4842 8.34591 26.6288 6.42138 24.7043 4.71069L27.4842 3C28.5534 4.28302 29.4087 5.56604 30.0502 6.63522C30.6917 7.91824 30.9056 9.20126 30.9056 10.4843C30.9056 11.5535 30.6917 12.4088 30.0502 13.478C29.4087 14.5472 28.7672 15.1887 27.698 15.6164C26.6288 16.044 24.9181 16.4717 22.5659 16.4717H21.9244ZM19.7861 23.7421C17.6477 23.7421 16.1508 24.1698 15.0817 25.239C14.0125 26.3082 13.371 27.3774 13.371 29.0881C13.371 30.5849 14.0125 31.8679 15.0817 32.7233C16.1508 33.5786 17.6477 34.0063 19.7861 34.0063C21.9244 34.0063 23.4213 33.5786 24.4905 32.7233C25.5596 31.8679 26.2012 30.5849 26.2012 29.0881C26.2012 27.3774 25.5596 26.0943 24.4905 25.239C23.4213 24.3836 21.9244 23.7421 19.7861 23.7421Z" fill="#FF5E2B" stroke="#FF5E2B" stroke-width="0.5"/>
</svg>
