<svg width="40" height="40" viewBox="0 0 40 40" fill="none" xmlns="http://www.w3.org/2000/svg">
<path d="M32.2597 28.6602H11.6812V3H29.3157C30.9416 3 32.2597 4.31808 32.2597 5.94402L32.2597 28.6602Z" fill="#3FD5C1"/>
<path d="M26.799 16.0885H17.141C16.4208 16.0885 15.8369 15.5046 15.8369 14.7844V8.90164C15.8369 8.1814 16.4208 7.59753 17.141 7.59753H26.799C27.5192 7.59753 28.1031 8.1814 28.1031 8.90164V14.7844C28.1031 15.5046 27.5192 16.0885 26.799 16.0885Z" fill="#F0F0FC"/>
<path d="M11.681 30.5927V3C9.09577 3 7 5.09577 7 7.68105V30.722C7 33.3073 9.09577 35.4031 11.681 35.4031H30.1216C31.3024 35.4031 32.2596 34.4459 32.2596 33.2651V30.5927H11.681Z" fill="#25B39E"/>
<path d="M32.2596 32.5252H11.7821C10.7148 32.5252 9.84961 31.66 9.84961 30.5927C9.84961 29.5254 10.7148 28.6602 11.7821 28.6602H32.2596V32.5252Z" fill="#F0F0FC"/>
<path d="M17.0801 36.8262L16.0566 35.9643L15.0331 36.8262C14.5561 37.2279 13.8271 36.8888 13.8271 36.2651V28.6602H18.2861V36.2651C18.2861 36.8888 17.5571 37.2279 17.0801 36.8262Z" fill="#EA5385"/>
</svg>
