<svg width="40" height="40" viewBox="0 0 40 40" fill="none" xmlns="http://www.w3.org/2000/svg">
<path d="M29.5775 24.0704C30.7747 22.1549 31.493 20 31.493 17.6056C31.493 15.4507 31.0141 13.5352 30.0564 11.8592C29.0986 10.1831 27.662 8.74648 25.986 7.78873C24.3099 6.83098 22.155 6.35211 20 6.35211C17.6057 6.35211 15.4507 6.83098 13.7747 7.78873C12.0986 8.74648 10.662 10.1831 9.9437 11.8592C9.22539 13.5352 8.74651 15.2113 8.74651 17.1268C8.74651 18.8028 8.98595 20.2394 9.46482 21.6761C10.662 20.2394 12.3381 19.2817 14.2536 19.2817C15.2113 19.2817 16.169 19.5211 16.8874 20C17.6057 20.4789 18.324 20.9577 18.5634 21.6761C19.5212 20 21.1972 19.2817 22.8733 19.2817C24.5493 19.2817 25.9859 19.7606 26.9437 20.7183C27.9014 21.6761 28.3803 23.1127 28.3803 25.0282V37H24.7888V25.507C24.7888 23.1127 24.0705 21.9155 22.3944 21.9155C20.7183 21.9155 20 23.1127 20 25.507V37H16.6479V31.9718C15.9296 32.9296 14.9719 33.169 13.5352 33.169C11.6198 33.169 10.1831 32.4507 9.22539 31.2535C8.0282 30.0563 7.54933 28.1408 7.54933 25.9859C7.54933 25.507 7.54933 25.2676 7.54933 25.0282C5.87327 22.8732 4.91553 20.2394 4.91553 16.8873C4.91553 14.2535 5.63384 12.0986 6.83102 9.94366C8.0282 7.78873 9.70426 6.11268 12.0986 4.91549C14.493 3.71831 16.8874 3 20 3C22.8733 3 25.5071 3.47887 27.9014 4.67606C30.2958 5.87324 31.9719 7.54929 33.169 9.70422C34.3662 11.8592 35.0845 14.493 35.0845 17.1268C35.0845 20.2394 34.3662 22.8732 32.6902 25.2676L29.5775 24.0704ZM13.7747 22.1549C12.8169 22.1549 12.0986 22.3944 11.6198 23.1127C11.1409 23.831 10.9014 24.7887 10.9014 25.9859C10.9014 28.8592 11.8592 30.2958 14.0141 30.2958C14.9719 30.2958 15.6902 29.8169 16.169 29.0986C16.6479 28.3803 16.8874 27.4225 16.8874 25.9859C16.8874 23.5915 15.6902 22.1549 13.7747 22.1549Z" fill="#FF5E2B"/>
</svg>
