<svg width="40" height="40" viewBox="0 0 40 40" fill="none" xmlns="http://www.w3.org/2000/svg">
<path d="M35.5499 3.12231H4.44898C3.64914 3.12231 3 3.77146 3 4.57129C3 5.37113 3.64914 6.02027 4.44898 6.02027H13.537V20.5738H11.4736C10.9288 20.5738 10.4304 20.8804 10.1811 21.3679C9.93771 21.8547 9.98408 22.4401 10.3092 22.88L13.8216 27.6616C14.0998 28.0384 14.5345 28.2534 14.9865 28.2534C15.1378 28.2534 15.2885 28.2302 15.4386 28.1781C16.0356 27.9804 16.4355 27.4304 16.4355 26.8044V23.4718H29.0184V35.4287C29.0184 36.2286 29.6676 36.8777 30.4674 36.8777C31.2678 36.8777 31.9164 36.2286 31.9164 35.4287V6.02027H35.551C36.3509 6.02027 37 5.37113 37 4.57129C37 3.77146 36.3497 3.12231 35.5499 3.12231ZM29.0179 20.5738H16.4349V6.02027H29.0179V20.5738Z" fill="#FF5E2B" stroke="#FF5E2B" stroke-width="0.5"/>
</svg>
