<svg width="40" height="40" viewBox="0 0 40 40" fill="none" xmlns="http://www.w3.org/2000/svg">
<path d="M31.9657 11.7846C31.7063 11.7846 31.4383 11.6816 31.2552 11.4985L28.502 8.74522C28.3188 8.56209 28.2158 8.31417 28.2158 8.05479C28.2158 7.79542 28.3188 7.52739 28.502 7.34431L31.2552 4.59009C31.6214 4.22388 32.2699 4.22388 32.6361 4.59009L35.4103 7.3643C35.5935 7.54744 35.6965 7.79536 35.6965 8.05473C35.6965 8.3141 35.5935 8.56209 35.4103 8.74516L32.6561 11.4984C32.473 11.6816 32.2251 11.7846 31.9657 11.7846Z" fill="#868686"/>
<path d="M12.1919 23.6647L16.335 27.8078L27.8077 16.335L23.6646 12.1919L12.1919 23.6647Z" fill="#868686"/>
<path d="M8.05888 35.6914C7.80901 35.6914 7.55914 35.596 7.36845 35.4053L4.59424 32.632C4.4111 32.4488 4.30811 32.2009 4.30811 31.9416C4.30811 31.6822 4.4111 31.4342 4.59424 31.2511L7.34846 28.4979C7.72991 28.1164 8.34794 28.1164 8.72939 28.4979L11.5027 31.2712C11.8841 31.6526 11.8841 32.2707 11.5027 32.6521L8.74944 35.4053C8.55862 35.596 8.30875 35.6914 8.05888 35.6914Z" fill="#868686"/>
<path d="M34.0228 18.4065L21.5933 5.97699L23.6649 3.90538C24.4276 3.14262 25.6643 3.14262 26.427 3.90538L36.0944 13.5728C36.8572 14.3356 36.8572 15.5722 36.0944 16.3349L34.0228 18.4065Z" fill="#FE3D00"/>
<path d="M31.2607 22.5498L17.4501 8.73914C17.0687 8.35776 17.0687 7.73947 17.4501 7.35809L18.8311 5.97704C19.5939 5.21428 20.8306 5.21428 21.5933 5.97704L34.0229 18.4066C34.7856 19.1694 34.7856 20.406 34.0229 21.1687L32.6418 22.5498C32.2604 22.9312 31.6421 22.9312 31.2607 22.5498Z" fill="#FF5E2B"/>
<path d="M5.97718 21.5934L18.4068 34.023L16.3352 36.0946C15.5724 36.8574 14.3358 36.8574 13.5731 36.0946L3.90557 26.4271C3.14281 25.6643 3.14281 24.4277 3.90557 23.665L5.97718 21.5934Z" fill="#FE3D00"/>
<path d="M8.73896 17.4502L22.5496 31.2609C22.931 31.6422 22.931 32.2605 22.5496 32.6419L21.1686 34.023C20.4058 34.7857 19.1691 34.7857 18.4065 34.023L5.97685 21.5934C5.2141 20.8307 5.2141 19.594 5.97685 18.8313L7.35791 17.4503C7.73929 17.0688 8.35758 17.0688 8.73896 17.4502Z" fill="#FF5E2B"/>
</svg>
