<svg width="40" height="40" viewBox="0 0 40 40" fill="none" xmlns="http://www.w3.org/2000/svg">
<path d="M13.333 22.667H26.667C28.6118 22.6671 30.4773 23.4393 31.8525 24.8145C33.2277 26.1897 34 28.0552 34 30C34 31.0609 33.5783 32.078 32.8281 32.8281C32.078 33.5783 31.0609 34 30 34H10C8.93913 34 7.92202 33.5783 7.17188 32.8281C6.42173 32.078 6 31.0609 6 30C6 28.0552 6.7723 26.1897 8.14746 24.8145C9.52265 23.4393 11.3882 22.6671 13.333 22.667ZM20 6C21.5029 6 22.9441 6.59745 24.0068 7.66016C25.0694 8.72285 25.667 10.1642 25.667 11.667C25.6669 13.1698 25.0695 14.6112 24.0068 15.6738C22.9441 16.7364 21.5028 17.333 20 17.333C18.4972 17.333 17.0559 16.7364 15.9932 15.6738C14.9305 14.6112 14.3331 13.1698 14.333 11.667C14.333 10.1642 14.9306 8.72285 15.9932 7.66016C17.0559 6.59745 18.4971 6 20 6Z" stroke="#FF5E2B" stroke-width="2"/>
</svg>
