<svg width="40" height="40" viewBox="0 0 40 40" fill="none" xmlns="http://www.w3.org/2000/svg">
<path d="M6.6665 17.488H10.6665V32.155H6.6665C6.04778 32.1549 5.4546 31.9089 5.01709 31.4714C4.57958 31.0339 4.33358 30.4407 4.3335 29.822V19.822C4.3335 19.2032 4.5795 18.6092 5.01709 18.1716C5.45458 17.7342 6.04786 17.4881 6.6665 17.488ZM33.3335 12.488C33.9523 12.488 34.5463 12.734 34.9839 13.1716C35.4214 13.6092 35.6665 14.2033 35.6665 14.822V29.822C35.6664 30.4406 35.4212 31.034 34.9839 31.4714C34.5463 31.909 33.9523 32.155 33.3335 32.155H29.3335V12.488H33.3335ZM21.6675 4.15503C22.2559 4.15493 22.8229 4.37702 23.2544 4.7771C23.6841 5.17556 23.9477 5.72141 23.9937 6.30542L24.0005 6.52124V32.155H16.0005V6.48804C16.0003 5.89947 16.2224 5.33274 16.6226 4.90112C17.0215 4.47087 17.568 4.20631 18.1528 4.16089L18.3394 4.15503H21.6675Z" stroke="#FF5E2B" stroke-width="2"/>
</svg>
