<svg width="40" height="40" viewBox="0 0 40 40" fill="none" xmlns="http://www.w3.org/2000/svg">
<path d="M21.6668 3.15503C22.5078 3.15476 23.3178 3.47237 23.9344 4.04419C24.551 4.61601 24.9288 5.39977 24.9918 6.23836L25.0002 6.48836V33.155H15.0002V6.48836C14.9999 5.6474 15.3175 4.83742 15.8893 4.22078C16.4611 3.60415 17.2449 3.22643 18.0835 3.16336L18.3335 3.15503H21.6668ZM33.3335 11.4884C34.2176 11.4884 35.0654 11.8396 35.6905 12.4647C36.3156 13.0898 36.6668 13.9376 36.6668 14.8217V29.8217C36.6668 30.7057 36.3156 31.5536 35.6905 32.1787C35.0654 32.8038 34.2176 33.155 33.3335 33.155H28.3335V11.4884H33.3335ZM11.6668 16.4884V33.155H6.66683C5.78277 33.155 4.93493 32.8038 4.30981 32.1787C3.68469 31.5536 3.3335 30.7057 3.3335 29.8217V19.8217C3.3335 18.9376 3.68469 18.0898 4.30981 17.4647C4.93493 16.8396 5.78277 16.4884 6.66683 16.4884H11.6668Z" fill="#FF5E2B"/>
</svg>
