<svg width="40" height="40" viewBox="0 0 40 40" fill="none" xmlns="http://www.w3.org/2000/svg">
<g clip-path="url(#clip0_296_1665)">
<path d="M30.7213 12.8888L33.2692 12.9726L33.3667 15.4347L30.7135 15.7056C29.6102 18.9163 28.0526 22.4895 24.6782 23.8073C24.3916 24.1153 25.4989 24.5656 25.7445 24.7839C31.3412 29.7276 28.4756 37.2055 20.8788 36.6674C10.5549 35.9345 9.2819 23.7118 9.66788 15.616H7.32861L7.41439 13.07L9.66983 12.8888C9.6211 5.676 14.8416 2.24507 21.6644 2.74216C27.4658 3.16518 30.6823 7.19653 30.7213 12.8868V12.8888ZM27.9941 12.8868C27.8791 8.52991 25.9824 5.78907 21.4734 5.46936C16.2763 5.10093 12.3054 7.24136 12.399 12.8868H27.9941ZM27.9941 15.616H12.399L12.5939 23.0256C17.4343 22.8716 23.2396 23.9048 26.2455 19.2282C26.9629 18.1112 27.4697 16.8304 27.9961 15.616H27.9941ZM13.1768 25.7547C14.095 30.3183 17.4011 34.6479 22.5807 33.8915C27.2826 33.2034 26.5672 28.016 23.1245 26.0413C21.6859 25.2167 21.4578 25.5774 20.1049 25.5696C17.7832 25.5559 15.4849 25.5247 13.1768 25.7567V25.7547Z" fill="#FF5E2B" stroke="#FF5E2B" stroke-width="0.5"/>
</g>
<defs>
<clipPath id="clip0_296_1665">
<rect width="40" height="40" fill="white"/>
</clipPath>
</defs>
</svg>
