<svg width="48" height="48" viewBox="0 0 48 48" fill="none" xmlns="http://www.w3.org/2000/svg">
<path d="M44.8334 18.708C44.4659 17.6145 43.5479 16.83 42.4334 16.659L31.6529 15.0045L26.8214 4.7535C26.3174 3.672 25.2779 3.0015 24.1109 3.0015C22.9439 3.0015 21.9044 3.6735 21.4004 4.7505L16.5674 15.006L5.78693 16.6605C4.67393 16.8315 3.75443 17.6175 3.38693 18.7095C3.00893 19.836 3.28343 21.0615 4.10243 21.9045L11.9474 29.9775L10.0934 41.3955C9.89843 42.5985 10.3844 43.7715 11.3639 44.46C11.8739 44.8185 12.4649 45 13.0589 45C13.5494 45 14.0399 44.8755 14.4914 44.6265L24.0854 39.2745L33.7319 44.6265C34.7279 45.18 35.9264 45.1155 36.8579 44.46C37.8374 43.773 38.3234 42.5985 38.1284 41.397L36.2744 29.979L44.1194 21.906C44.9384 21.063 45.2129 19.839 44.8349 18.711L44.8334 18.708Z" fill="#FFCB2B"/>
</svg>
