<svg width="40" height="40" viewBox="0 0 40 40" fill="none" xmlns="http://www.w3.org/2000/svg">
<path d="M24.3171 18.3415C24.3171 23.3171 20.1707 26.6341 13.5366 26.6341C7.73171 26.6341 4 23.7317 4 19.1707C4 15.8537 6.07317 13.7805 9.39024 13.3659V3.41463V3H32.1951V5.07317H24.3171V12.9512H25.9756C31.7805 12.9512 35.5122 16.2683 35.5122 20.8293C35.5122 27.4634 30.122 31.1951 20.5854 31.1951H12.2927C9.80488 31.1951 8.97561 32.439 8.97561 36.1707C8.97561 37 8.14634 37 7.31707 37C6.07317 37 4.41464 35.7561 4.41464 34.0976C4.41464 30.7805 6.90244 29.122 11.8781 29.122H20.5854C26.8049 29.122 30.122 26.2195 30.122 20.8293C30.122 17.0976 28.4634 15.0244 25.561 15.0244H23.9024V18.3415H24.3171ZM18.9268 18.7561V15.439H11.4634C8.97561 15.439 6.90244 16.6829 6.90244 19.1707C6.90244 22.0732 9.39024 23.7317 13.122 23.7317C16.8537 24.1463 18.9268 22.0732 18.9268 18.7561ZM12.2927 13.3659H18.5122V5.4878H12.2927V13.3659Z" fill="#FF5E2B"/>
</svg>
