<svg width="40" height="40" viewBox="0 0 40 40" fill="none" xmlns="http://www.w3.org/2000/svg">
<path d="M6.66906 27.0096C7.40288 28.9772 8.8705 30.6988 11.0719 31.6826C13.2734 32.6664 16.4532 33.4043 19.8777 33.4043C23.7914 33.4043 26.9712 32.6664 29.1727 31.4367C31.3741 30.2069 32.8417 28.2393 33.3309 25.7798C31.8633 27.0096 30.1511 27.7474 28.1942 27.7474C26.2374 27.7474 24.7698 27.2555 23.5468 26.0258C22.3237 25.042 21.8345 23.5663 21.8345 21.5987C21.8345 20.1229 22.3237 19.1391 23.0576 17.9094C24.036 16.9256 25.0144 16.1877 26.482 15.9418C25.259 15.6958 23.5468 15.4499 21.5899 15.4499L22.5683 11.7606C27.2158 12.4985 30.8849 13.7282 33.3309 15.9418C35.777 18.1553 37 20.8608 37 24.3041C37 28.2393 35.5324 31.1907 32.5971 33.4043C29.6619 35.6178 25.5036 36.8476 20.1223 36.8476C14.4964 36.8476 10.3381 35.8638 7.15827 33.6502C3.97842 31.4367 3 28.7312 3 24.796C3 21.8446 3.73381 19.631 5.44604 17.6634C7.15827 15.6958 9.35971 14.958 11.8058 14.958C13.7626 14.958 15.4748 15.4499 16.4532 16.6796C17.4317 17.9094 18.1655 19.1391 18.1655 21.1067C18.1655 23.0744 17.4317 24.796 16.2086 26.0258C14.741 27.2555 13.0288 27.7474 10.5827 27.7474C9.11511 27.7474 7.89209 27.5015 6.66906 27.0096ZM6.42446 23.3203C7.40288 24.0582 8.6259 24.3041 9.84892 24.3041C12.7842 24.3041 14.2518 23.3203 14.2518 21.1067C14.2518 20.3689 14.0072 19.631 13.518 19.1391C13.0288 18.6472 12.295 18.4013 11.3165 18.4013C10.0935 18.4013 8.8705 18.8932 8.13669 19.631C7.40288 20.6148 6.91367 21.8446 6.42446 23.3203ZM7.15827 6.8416V3.15234H25.9928C27.9496 3.15234 29.4173 3.39829 30.3957 3.64424C31.3741 3.8902 32.3525 4.3821 32.8417 4.874C33.5755 5.3659 34.0647 6.10375 34.3094 6.8416C34.554 7.57946 34.7986 8.56326 34.7986 9.54706C34.7986 10.5309 34.554 11.5147 34.3094 12.2525C33.8201 13.2363 33.3309 13.7282 32.5971 14.4661C31.8633 14.958 30.8849 15.4499 29.9065 15.6958C28.9281 15.9418 27.4604 15.9418 25.7482 15.9418H20.8561V12.2525H26.2374C27.4604 12.2525 28.4389 12.2525 28.9281 12.0066C29.4173 11.7606 29.9065 11.5147 30.1511 11.2687C30.3957 10.7768 30.6403 10.2849 30.6403 9.79301C30.6403 9.05516 30.3957 8.56326 30.1511 8.07136C29.9065 7.57946 29.4173 7.33351 28.9281 7.33351C28.4389 7.08755 27.4604 7.08756 26.482 7.08756H7.15827V6.8416ZM33.5755 21.3527C33.0863 20.6148 32.5971 19.877 31.8633 19.3851C31.1295 18.8932 30.3957 18.6472 29.4173 18.6472C28.4388 18.6472 27.705 18.8932 26.9712 19.3851C26.2374 19.877 25.9928 20.6148 25.9928 21.5987C25.9928 22.5825 26.2374 23.0744 26.7266 23.5663C27.2158 24.0582 28.1942 24.3041 29.1727 24.3041C30.1511 24.3041 31.1295 24.0582 31.8633 23.5663C32.5971 23.0744 33.3309 22.3365 33.5755 21.3527Z" fill="#FF5E2B"/>
</svg>
