<svg width="40" height="40" viewBox="0 0 40 40" fill="none" xmlns="http://www.w3.org/2000/svg">
<path d="M5.19333 13.9637L13.0414 12.8234C13.762 12.7187 14.3851 12.266 14.7073 11.613L18.3495 4.23319C19.1611 2.58878 21.5062 2.58878 22.3179 4.23319L25.9601 11.613C26.2823 12.266 26.9054 12.7187 27.626 12.8234L35.7702 14.0068C37.585 14.2704 38.3096 16.5008 36.9963 17.7807L31.1032 23.5252C30.5817 24.0335 30.3437 24.7659 30.4668 25.4836L31.8074 33.2995L18.7178 30.9598L11.6838 32.889L11.6035 22.4787L5.19333 13.9637Z" fill="#FECD82"/>
<path d="M4.89724 14.0067L5.19351 13.9636L12.2139 20.8068C13.6304 22.1877 14.2764 24.1759 13.942 26.1253L13.4181 29.179C13.2851 29.9543 14.0989 30.5455 14.7952 30.1794L17.5375 28.7377C18.396 28.2861 19.3629 28.0475 20.3335 28.0475C21.3039 28.0475 22.2707 28.2863 23.1297 28.7377L31.8073 33.2997L31.858 33.595C32.1681 35.4025 30.2709 36.7809 28.6477 35.9274L21.3633 32.0978C20.7188 31.759 19.9486 31.759 19.3041 32.0978L12.0197 35.9274C10.3965 36.7809 8.49928 35.4025 8.80937 33.595L10.2006 25.4837C10.3237 24.7659 10.0856 24.0335 9.56423 23.5253L3.67107 17.7809C2.35775 16.5007 3.0824 14.2704 4.89724 14.0067Z" fill="#FEBC57"/>
</svg>
