<svg width="40" height="40" viewBox="0 0 40 40" fill="none" xmlns="http://www.w3.org/2000/svg">
<path d="M21.8302 16.4717C22.2579 17.327 22.4717 17.9686 22.4717 18.6101C22.4717 19.4654 22.2579 20.1069 21.8302 20.5346H30.3836V23.5283H26.3208C27.3899 24.1698 28.0314 25.0252 28.673 25.8805C29.3145 26.7359 29.5283 28.0189 29.5283 29.0881C29.5283 31.6541 28.673 33.5786 26.9623 34.8616C25.2516 36.3585 22.6855 37 19.6918 37C16.6981 37 14.3459 36.3585 12.6352 34.8616C10.9245 33.3648 10.0692 31.4403 10.0692 29.0881C10.0692 26.7359 11.1384 24.8113 13.0629 23.3145H9V20.3208H17.9811C18.6226 19.6792 19.0503 19.0377 19.0503 18.1824C19.0503 17.5409 18.8365 16.6855 18.4088 16.044H9V12.8365H21.6164C23.1132 12.8365 24.1824 12.8365 25.0377 12.6226C25.6792 12.4088 26.3208 12.195 26.7484 11.7673C27.1761 11.3396 27.3899 10.6981 27.3899 10.0566C27.3899 8.34591 26.5346 6.42138 24.6101 4.71069L27.3899 3C28.4591 4.28302 29.3145 5.56604 29.956 6.63522C30.5975 7.91824 30.8113 9.20126 30.8113 10.4843C30.8113 11.5535 30.5975 12.4088 29.956 13.478C29.3145 14.5472 28.673 15.1887 27.6038 15.6164C26.5346 16.044 24.8239 16.4717 22.4717 16.4717H21.8302ZM19.6918 23.7421C17.5535 23.7421 16.0566 24.1698 14.9874 25.239C13.9182 26.3082 13.2767 27.3774 13.2767 29.0881C13.2767 30.5849 13.9182 31.8679 14.9874 32.7233C16.0566 33.5786 17.5535 34.0063 19.6918 34.0063C21.8302 34.0063 23.327 33.5786 24.3962 32.7233C25.4654 31.8679 26.1069 30.5849 26.1069 29.0881C26.1069 27.3774 25.4654 26.0943 24.3962 25.239C23.327 24.3836 21.8302 23.7421 19.6918 23.7421Z" fill="#FF5E2B" stroke="#FF5E2B"/>
</svg>
