<svg width="512" height="512" viewBox="0 0 512 512" fill="none" xmlns="http://www.w3.org/2000/svg">
<g clip-path="url(#clip0_708_2547)">
<rect width="512" height="512" rx="78.7692" fill="#1E2732"/>
<path d="M42.5478 445.236C18.2357 424.313 -18.4347 427.061 -39.3574 451.373L-144.483 573.529C-165.406 597.841 -162.658 634.511 -138.346 655.434C-114.034 676.357 -77.3639 673.609 -56.4411 649.297L48.6849 527.141C69.6077 502.829 66.86 466.159 42.5478 445.236Z" fill="#FF5E2B" stroke="#E65526" stroke-width="8.00583"/>
<path d="M66.1489 500.757C85.6296 478.12 83.0714 443.977 60.4349 424.497C37.7984 405.016 3.65568 407.574 -15.825 430.211L-141.467 576.206C-160.947 598.842 -158.389 632.985 -135.753 652.466C-113.116 671.946 -78.9734 669.388 -59.4927 646.752L66.1489 500.757Z" fill="#FF5E2B"/>
<path d="M448.641 454.168C467.875 428.499 504.276 423.281 529.945 442.515L658.921 539.152C684.59 558.386 689.808 594.787 670.575 620.456C651.341 646.126 614.94 651.343 589.271 632.11L460.295 535.472C434.626 516.239 429.408 479.838 448.641 454.168Z" fill="#FF5E2B" stroke="#E65526" stroke-width="8.00583"/>
<path d="M437.51 513.276C413.609 495.369 408.751 461.477 426.659 437.576C444.567 413.676 478.459 408.818 502.359 426.726L656.505 542.223C680.405 560.131 685.263 594.023 667.355 617.923C649.447 641.823 615.555 646.681 591.655 628.773L437.51 513.276Z" fill="#FF5E2B"/>
<path d="M432.054 76.5375C464.424 53.6613 509.421 74.3909 513.069 113.86L530.697 304.575L275.642 187.074L432.054 76.5375Z" fill="#FF5E2B"/>
<path d="M442.341 92.7702C463.023 78.0378 491.899 91.2108 494.33 116.487L509.569 274.954C509.569 274.954 479.121 260.835 429.337 232.657C379.553 204.479 312.893 184.977 312.893 184.977L442.341 92.7702Z" fill="#FE9C5E"/>
<path d="M82.1359 76.6039C49.7657 53.7277 4.76865 74.4573 1.12047 113.927L-16.5074 304.642L238.547 187.141L82.1359 76.6039Z" fill="#FF5E2B"/>
<path d="M71.886 92.8406C51.2034 78.1081 22.3275 91.2811 19.8967 116.558L4.65735 275.024C4.65735 275.024 35.1057 260.905 84.8899 232.727C134.674 204.549 201.334 185.047 201.334 185.047L71.886 92.8406Z" fill="#FE9C5E"/>
<path d="M312.282 101.17C415.655 101.17 503.192 177.413 517.382 279.808L562.888 608.176C574.316 690.643 510.251 764.198 426.995 764.198H88.9551C6.87055 764.198 -56.8427 692.598 -47.3066 611.069L-9.07129 284.175C3.13291 179.836 91.5368 101.17 196.587 101.17H312.282Z" fill="#FF5E2B" stroke="#E65526" stroke-width="6.55022"/>
<rect x="417.557" y="326.406" width="56.4267" height="14.6292" rx="7.31458" fill="#E65526"/>
<rect x="403.133" y="306.773" width="56.4267" height="14.6292" rx="7.31458" transform="rotate(-15 403.133 306.773)" fill="#E65526"/>
<rect width="56.4267" height="14.6292" rx="7.31458" transform="matrix(0.965926 0.258819 0.258819 -0.965926 403.133 360.93)" fill="#E65526"/>
<rect width="56.4267" height="14.6292" rx="7.31458" transform="matrix(-1 0 0 1 115.67 326.406)" fill="#E65526"/>
<rect width="56.4267" height="14.6292" rx="7.31458" transform="matrix(-0.965926 -0.258819 -0.258819 0.965926 130.096 306.773)" fill="#E65526"/>
<rect x="130.096" y="360.93" width="56.4267" height="14.6292" rx="7.31458" transform="rotate(165 130.096 360.93)" fill="#E65526"/>
<rect x="140.074" y="445.855" width="240.175" height="288.21" rx="120.087" fill="#FE9C5E"/>
<rect width="128.166" height="160.383" rx="64.0829" transform="matrix(-1 0 0 1 417.504 148.926)" fill="white"/>
<path fill-rule="evenodd" clip-rule="evenodd" d="M353.63 166.848C350.564 166.848 347.563 167.129 344.652 167.666C355.965 170.539 364.38 181.407 364.38 194.377C364.38 209.54 352.879 221.832 338.691 221.832C324.504 221.832 313.002 209.54 313.002 194.377C313.002 191.814 313.333 189.334 313.947 186.98C307.981 195.119 304.454 205.159 304.454 216.023V242.181C304.454 269.34 326.471 291.356 353.63 291.356C361.596 291.356 369.118 289.46 375.773 286.098C373.057 283.29 371.367 279.355 371.367 274.997C371.367 266.468 377.837 259.554 385.817 259.554C390.353 259.554 394.401 261.787 397.05 265.281C400.722 258.394 402.805 250.531 402.805 242.181V216.023C402.805 188.865 380.789 166.848 353.63 166.848Z" fill="#1E2732"/>
<rect width="128.166" height="160.383" rx="64.0829" transform="matrix(-1 0 0 1 230.389 148.926)" fill="white"/>
<path fill-rule="evenodd" clip-rule="evenodd" d="M166.566 166.848C163.559 166.848 160.614 167.118 157.756 167.635C168.984 170.572 177.316 181.397 177.316 194.303C177.316 209.466 165.815 221.758 151.628 221.758C137.44 221.758 125.938 209.466 125.938 194.303C125.939 191.781 126.259 189.34 126.854 187.021C120.906 195.152 117.391 205.177 117.391 216.023V242.181C117.391 269.34 139.408 291.356 166.566 291.356C174.532 291.356 182.055 289.46 188.71 286.098C185.994 283.29 184.304 279.355 184.304 274.997C184.304 266.468 190.773 259.554 198.754 259.554C203.29 259.554 207.337 261.787 209.986 265.281C213.658 258.394 215.742 250.531 215.742 242.181V216.023C215.742 188.865 193.725 166.848 166.566 166.848Z" fill="#1E2732"/>
<path d="M206.539 351.099C206.539 327.931 225.321 309.148 248.49 309.148H295.06C318.229 309.148 337.011 327.931 337.011 351.099C337.011 374.268 318.229 393.05 295.06 393.05H248.49C225.321 393.05 206.539 374.268 206.539 351.099Z" fill="#FE9C5E"/>
<path d="M312.727 351.099C312.727 327.931 293.944 309.148 270.776 309.148H224.206C201.037 309.148 182.255 327.931 182.255 351.099C182.255 374.268 201.037 393.05 224.206 393.05H270.776C293.945 393.05 312.727 374.268 312.727 351.099Z" fill="#FE9C5E"/>
<path d="M255.2 324.729C257.605 327.354 261.564 327.354 263.969 324.729L276.945 310.57C280.743 306.426 277.992 299.449 272.561 299.449H246.608C241.177 299.449 238.426 306.426 242.223 310.57L255.2 324.729Z" fill="#D63C00"/>
<path d="M220.924 334.707C220.924 334.707 218.508 349.134 228.282 355.34C238.055 361.546 254.154 358.272 254.154 358.272" stroke="#864E2B" stroke-width="11.5835" stroke-linecap="round"/>
</g>
<defs>
<clipPath id="clip0_708_2547">
<rect width="512" height="512" rx="78.7692" fill="white"/>
</clipPath>
</defs>
</svg>
